<?xml version="1.0" encoding="UTF-8"?>
<svg xmlns="http://www.w3.org/2000/svg" version="1.1" width="128" height="128">
  <!-- Reactor -->
  <g transform="translate(0, 0)">
    <g fill="#883916" stroke="#d99353" stroke-width="2">
      <!-- Chamber -->
      <path d="M 31,96 V 16 A 32 14 0 0 1 95,16 V 96"/>
      <g fill="none" stroke-width="1">
        <path d="M 31,15 H 95"/>
        <path d="M 35,96 V 15 A 40 20 0 0 1 63,2"/>
        <path d="M 41,96 V 15 A 40 20 0 0 1 63,2"/>
        <path d="M 50,96 V 15 A 40 20 0 0 1 63,2"/>
        <path d="M 63,96 V 15 L 63,2"/>
        <path d="M 76,96 V 15 A 40 20 0 0 0 63,2"/>
        <path d="M 85,96 V 15 A 40 20 0 0 0 63,2"/>
        <path d="M 91,96 V 15 A 40 20 0 0 0 63,2"/>
      </g>
      <!-- Pipe -->
      <path d="M 13,79 a 9 9 0 0 0 9,9 h 4 l 5,2 a 5 8 0 0 0 0,-10
               l -5,2 h -4 a 3 3 0 0 1 -3 -3
               V 34 a 3 3 0 0 1 3 -3 h 4 l 5,2 a 5 8 0 0 0 0,-10
               l -5,2 h -4 a 9 9 0 0 0 -9,9 Z"/>
      <!-- Base -->
      <path d="M 12,127 L 24,97 H 112 L 124,127 Z"/>
      <g fill="#0e242a" stroke-width="1">
        <rect x="28" y="102" width="18" height="20"/>
        <rect x="90" y="102" width="18" height="20"/>
      </g>
    </g>
  </g>
  <!-- Control rod -->
  <g transform="translate(96, 64)">
    <g fill="#883916" stroke="#d99353" stroke-width="2">
      <path d="M 0,9 H 17 V 23 H 0"/>
      <path d="M 17,5 h 2 a 5 5 0 0 1 5 5 v 12 a 5 5 0 0 1 -5 5 h -2 z"/>
      <path d="M 0.5,9 V 23" stroke-width="1"/>
    </g>
  </g>
</svg>
