<?xml version="1.0" encoding="UTF-8"?>
<svg xmlns="http://www.w3.org/2000/svg" version="1.1" width="128" height="128">
  <!-- Field -->
  <g transform="translate(0, 0)">
    <g fill="none" stroke="#511b7d" stroke-width="2">
      <circle cx="0" cy="0" r="23"/>
      <circle cx="0" cy="0" r="47"/>
      <circle cx="0" cy="0" r="71"/>
      <circle cx="0" cy="0" r="95"/>
      <path d="M 21.25,8.80 L 87.77,36.35"/>
      <path d="M 8.80,21.25 L 36.35,87.77"/>
    </g>
    <g fill="#883916" stroke="#d99353" stroke-width="1">
      <path d="M 13,-5 V 7 A 4 4 0 1 1 7,13 H -5 V -5 Z"/>
      <circle cx="0" cy="0" r="9"/>
      <circle cx="10.1" cy="10.1" r="0.5"/>
    </g>
  </g>
  <!-- Turret barrel -->
  <g transform="translate(96, 0)">
    <g transform="translate(16, 24)"
       fill="#883916" stroke="#d99353" stroke-width="2">
      <rect x="-2" y="-20" width="4" height="20"/>
      <path d="M 5,-5 V 5 A 5 5 0 0 1 0,10 H -5 V -5 Z"
            stroke-linejoin="round"/>
      <path d="M -2.5,10 v -5 M -0.5,10 v -5" stroke-width="1"/>
      <circle cx="0" cy="0" r="0.1"/>
    </g>
  </g>
  <!-- Pulse blast -->
  <g transform="translate(96, 48)">
    <path d="M 16,5 L 14.5,37 a 2.5 4.5 0 1 0 3,0 Z"
          fill="#65ebfb" stroke="#97f2fc" stroke-width="1"/>
  </g>
  <!-- Enemy robot -->
  <g transform="translate(0, 96)">
    <g transform="translate(16, 16) scale(0.75)"
       fill="#800" stroke="#d00" stroke-width="2" stroke-linejoin="round">
      <path d="M -2,6 v 4 h -8 v -4 z"/>
      <path d="M -2,-6 v -4 h -8 v 4 z"/>
      <path d="M -2,-6 A 11 6 0 1 1 0,6 A 8 6 0 1 1 -2,-6"/>
    </g>
  </g>
  <!-- Meter caps -->
  <g transform="translate(32, 96)">
    <path d="M 8,14 V 2 H 24 V 14
             M 8,18 V 30 H 24 V 18"
          fill="none" stroke="#a437fc" stroke-width="4"
          stroke-linecap="round" stroke-linejoin="round"/>
  </g>
  <!-- Cooldown meter -->
  <g transform="translate(64, 96)">
    <rect x="11" y="0" width="10" height="32" fill="#51d9f9" stroke="none"/>
    <rect x="13" y="0" width="6" height="32" fill="#65ebfb" stroke="none"/>
  </g>
  <!-- Health meter -->
  <g transform="translate(96, 96)">
    <path d="M 11,3 L 14,1 H 18 L 21,3 V 11 L 18,13 H 14 L 11,11 Z"
          fill="#f00" stroke="none"/>
  </g>
</svg>
