<?xml version="1.0" encoding="UTF-8"?>
<svg xmlns="http://www.w3.org/2000/svg" version="1.1" width="256" height="256">
  <!-- Dialog -->
  <g transform="translate(0, 0)">
    <!-- Outline -->
    <path d="M 2,2 H 102 L 126,26 V 126 H 40 L 2,88 z"
          fill="#00f" stroke="#0f0" stroke-width="2"/>
    <!-- Stripes -->
    <g fill="none" stroke="#0f0" stroke-width="2">
      <path d="M 32,118 H 126"/>
      <path d="M 52,122 H 108"/>
      <path d="M 96.343,2 L 126,31.657"/>
    </g>
    <!-- Hatch marks -->
    <g transform="translate(38.5, 126) skewX(45) scale(1,12)"
       fill="#0f0" stroke="none">
      <rect x="8" y="-1" width="2.82842" height="1"/>
      <rect x="16" y="-1" width="2.82842" height="1"/>
      <rect x="24" y="-1" width="2.82842" height="1"/>
      <rect x="72" y="-1" width="2.82842" height="1"/>
      <rect x="80" y="-1" width="2.82842" height="1"/>
      <rect x="88" y="-1" width="2.82842" height="0.85"/>
    </g>
    <!-- Corners -->
    <g fill="none" stroke="#f00" stroke-width="4">
      <path d="M 2,16 v -14 h 16"/>
      <path d="M 126,112 v 14 h -16"/>
      <path d="M 2,76 v 12 l 8.485,8.485"/>
    </g>
  </g>
  <!-- Rect -->
  <g transform="translate(128, 0)">
    <!-- Outline -->
    <rect x="2" y="2" width="60" height="28"
          fill="#00f" stroke="#0f0" stroke-width="2"/>
    <!-- Corners -->
    <g fill="none" stroke="#f00" stroke-width="4">
      <path d="M 2,15 v -13 h 16"/>
      <path d="M 62,15 v -13 h -16"/>
      <path d="M 2,17 v 13 h 16"/>
      <path d="M 62,17 v 13 h -16"/>
    </g>
  </g>
  <!-- Alt-Rect -->
  <g transform="translate(128, 32)">
    <!-- Outline -->
    <rect x="2" y="2" width="60" height="28"
          fill="#00f" stroke="#0f0" stroke-width="2"/>
    <!-- Corners -->
    <g fill="none" stroke="#f00" stroke-width="4">
      <path d="M 2,15 v -13 h 16"/>
      <path d="M 62,17 v 13 h -16"/>
    </g>
  </g>
  <!-- Scrollbar handle -->
  <g transform="translate(192, 0)">
    <path d="M 2,5 l 3,-3 h 22 l 3,3 v 22 l -3,3 h -22 l -3,-3 z"
          fill="#00f" stroke="#f00" stroke-width="4"/>
  </g>
  <!-- Scrollbar bar -->
  <g transform="translate(224, 0)">
    <path d="M 2,5 l 3,-3 h 22 l 3,3 v 22 l -3,3 h -22 l -3,-3 z"
          fill="#00f" stroke="#0f0" stroke-width="2"/>
  </g>
  <!-- Unchecked box -->
  <g transform="translate(192, 32)">
    <path d="M 2,16 C 2,2 2,2 16,2 S 30,2 30,16 S 30,30 16,30 S 2,30 2,16"
          fill="#00f" stroke="#f00" stroke-width="4"/>
  </g>
  <!-- Checked box -->
  <g transform="translate(224, 32)">
    <path d="M 2,16 C 2,2 2,2 16,2 S 30,2 30,16 S 30,30 16,30 S 2,30 2,16"
          fill="#00f" stroke="#f00" stroke-width="4"/>
    <path d="M 10,10 l 12,12 M 10,22 l 12,-12"
          stroke="#0f0" stroke-width="4" stroke-linecap="round"/>
  </g>
  <!-- List frame -->
  <g transform="translate(192, 64)">
    <path d="M 1,5 l 4,-4 h 22 l 4,4 v 22 l -4,4 h -22 l -4,-4 z"
          fill="none" stroke="#f00" stroke-width="2"/>
  </g>
  <!-- List item -->
  <g transform="translate(224, 64)">
    <rect x="0" y="1" width="32" height="30" fill="#00f" stroke="none"/>
    <g fill="none" stroke="#f00" stroke-width="1">
      <path d="M 0,0.5 h 32"/>
      <path d="M 0,31.5 h 32"/>
    </g>
  </g>
  <!-- Selection box -->
  <g transform="translate(224, 96)">
    <!-- Outline -->
    <rect x="2" y="2" width="28" height="28"
          fill="#00f" stroke="#0f0" stroke-width="2"/>
    <!-- Corners -->
    <g fill="none" stroke="#f00" stroke-width="4">
      <path d="M 2,8 v -6 h 6"/>
      <path d="M 30,8 v -6 h -6"/>
      <path d="M 2,24 v 6 h 6"/>
      <path d="M 30,24 v 6 h -6"/>
    </g>
  </g>
</svg>
