<?xml version="1.0" encoding="UTF-8"?>
<svg xmlns="http://www.w3.org/2000/svg" version="1.1" width="256" height="256">
  <!-- Tray -->
  <g transform="translate(0, 0)">
    <path d="M 0,2 L 98,2 L 108,12 V 36 l 18,0 v 20 l -18,10 L 108,126 L 0,126"
          fill="#00f" stroke="#0f0" stroke-width="2"/>
    <path d="M 126,45 v 4" fill="none" stroke="#f00" stroke-width="4"/>
  </g>
  <!-- Dialog -->
  <g transform="translate(0, 128)">
    <!-- Outline -->
    <path d="M 2,2 H 102 L 126,26 V 126 H 40 L 2,88 z"
          fill="#00f" stroke="#0f0" stroke-width="2"/>
    <!-- Stripes -->
    <g fill="none" stroke="#0f0" stroke-width="2">
      <path d="M 32,118 H 126"/>
      <path d="M 52,122 H 108"/>
      <path d="M 96.343,2 L 126,31.657"/>
    </g>
    <!-- Hatch marks -->
    <g transform="translate(38.5, 126) skewX(45) scale(1,12)"
       fill="#0f0" stroke="none">
      <rect x="8" y="-1" width="2.82842" height="1"/>
      <rect x="16" y="-1" width="2.82842" height="1"/>
      <rect x="24" y="-1" width="2.82842" height="1"/>
      <rect x="72" y="-1" width="2.82842" height="1"/>
      <rect x="80" y="-1" width="2.82842" height="1"/>
      <rect x="88" y="-1" width="2.82842" height="0.85"/>
    </g>
    <!-- Corners -->
    <g fill="none" stroke="#f00" stroke-width="4">
      <path d="M 2,16 v -14 h 16"/>
      <path d="M 126,112 v 14 h -16"/>
      <path d="M 2,76 v 12 l 8.485,8.485"/>
    </g>
  </g>
  <!-- Rect -->
  <g transform="translate(128, 0)">
    <rect x="2" y="2" width="60" height="28"
          fill="#00f" stroke="#0f0" stroke-width="2"/>
    <g fill="none" stroke="#f00" stroke-width="4">
      <path d="M 2,15 v -13 h 16"/>
      <path d="M 62,15 v -13 h -16"/>
      <path d="M 2,17 v 13 h 16"/>
      <path d="M 62,17 v 13 h -16"/>
    </g>
  </g>
  <!-- Alt-Rect -->
  <g transform="translate(128, 32)">
    <rect x="2" y="2" width="60" height="28"
          fill="#00f" stroke="#0f0" stroke-width="2"/>
    <g fill="none" stroke="#f00" stroke-width="4">
      <path d="M 2,15 v -13 h 16"/>
      <path d="M 62,17 v 13 h -16"/>
    </g>
  </g>
  <!-- Scrollbar handle -->
  <g transform="translate(192, 0)">
    <path d="M 2,5 l 3,-3 h 22 l 3,3 v 22 l -3,3 h -22 l -3,-3 z"
          fill="#00f" stroke="#f00" stroke-width="4"/>
  </g>
  <!-- Scrollbar bar -->
  <g transform="translate(224, 0)">
    <path d="M 2,5 l 3,-3 h 22 l 3,3 v 22 l -3,3 h -22 l -3,-3 z"
          fill="#00f" stroke="#0f0" stroke-width="2"/>
  </g>
  <!-- Unchecked box -->
  <g transform="translate(192, 32)">
    <path d="M 2,16 C 2,2 2,2 16,2 S 30,2 30,16 S 30,30 16,30 S 2,30 2,16"
          fill="#00f" stroke="#f00" stroke-width="4"/>
  </g>
  <!-- Checked box -->
  <g transform="translate(224, 32)">
    <path d="M 2,16 C 2,2 2,2 16,2 S 30,2 30,16 S 30,30 16,30 S 2,30 2,16"
          fill="#00f" stroke="#f00" stroke-width="4"/>
    <path d="M 10,10 l 12,12 M 10,22 l 12,-12"
          stroke="#0f0" stroke-width="4" stroke-linecap="round"/>
  </g>
  <!-- List frame -->
  <g transform="translate(192, 64)">
    <path d="M 1,5 l 4,-4 h 22 l 4,4 v 22 l -4,4 h -22 l -4,-4 z"
          fill="none" stroke="#f00" stroke-width="2"/>
  </g>
  <!-- List item -->
  <g transform="translate(224, 64)">
    <rect x="0" y="1" width="32" height="30" fill="#00f" stroke="none"/>
    <g fill="none" stroke="#f00" stroke-width="1">
      <path d="M 0,0.5 h 32"/>
      <path d="M 0,31.5 h 32"/>
    </g>
  </g>
  <!-- Tutorial bubble -->
  <g transform="translate(192, 96)">
    <path d="M 20,0.5 A 12 12 0 0 1 31.5,12 V 20 A 12 12 0 0 1 20,31.5
             H 12 A 12 12 0 0 1 0.5,20 V 12 A 12 12 0 0 1 12,0.5 Z"
          fill="#00f" stroke="#f00" stroke-width="1"/>
  </g>
  <!-- Selection box -->
  <g transform="translate(224, 96)">
    <rect x="2" y="2" width="28" height="28"
          fill="#00f" stroke="#0f0" stroke-width="2"/>
    <g fill="none" stroke="#f00" stroke-width="4">
      <path d="M 2,8 v -6 h 6"/>
      <path d="M 30,8 v -6 h -6"/>
      <path d="M 2,24 v 6 h 6"/>
      <path d="M 30,24 v 6 h -6"/>
    </g>
  </g>
  <!-- Flip horizontally icon -->
  <g transform="translate(128, 160)">
    <circle cx="16" cy="16" r="15"
            fill="#00f" stroke="#f00" stroke-width="2"/>
    <path d="M 22,16 A 9 7 0 0 0 10,16"
          fill="none" stroke="#0f0" stroke-width="4"/>
    <path d="M 5,19 L 7.5,11.5 L 13,20 Z"
          fill="#0f0" stroke="none"/>
    <path d="M 27,19 L 24.5,11.5 L 19,20 Z"
          fill="#0f0" stroke="none"/>
    <path d="M 16,5 V 27" fill="none"
          stroke="#0f0" stroke-width="2" stroke-dasharray="2 2"/>
  </g>
  <!-- Flip vertically icon -->
  <g transform="translate(160, 160)">
    <circle cx="16" cy="16" r="15"
            fill="#00f" stroke="#f00" stroke-width="2"/>
    <path d="M 16,22 A 7 9 0 0 1 16,10"
          fill="none" stroke="#0f0" stroke-width="4"/>
    <path d="M 19,5 L 11.5,7.5 L 20,13 Z"
          fill="#0f0" stroke="none"/>
    <path d="M 19,27 L 11.5,24.5 L 20,19 Z"
          fill="#0f0" stroke="none"/>
    <path d="M 5,16 H 27" fill="none"
          stroke="#0f0" stroke-width="2" stroke-dasharray="2 2"/>
  </g>
  <!-- Rotate counterclockwise icon -->
  <g transform="translate(192, 160)">
    <circle cx="16" cy="16" r="15"
            fill="#00f" stroke="#f00" stroke-width="2"/>
    <path d="M 16,23.071 A 7 7 0 1 0 11,11"
          fill="none" stroke="#0f0" stroke-width="4"/>
    <path d="M 7,15 L 8,7 L 15,14 Z"
          fill="#0f0" stroke="none"/>
  </g>
  <!-- Rotate clockwise icon -->
  <g transform="translate(224, 160)">
    <circle cx="16" cy="16" r="15"
            fill="#00f" stroke="#f00" stroke-width="2"/>
    <path d="M 16,23.071 A 7 7 0 1 1 21,11"
          fill="none" stroke="#0f0" stroke-width="4"/>
    <path d="M 25,15 L 24,7 L 17,14 Z"
          fill="#0f0" stroke="none"/>
  </g>
  <!-- Play icon -->
  <g transform="translate(128, 192)"
     fill="#0f0" stroke="#f00" stroke-width="3">
    <path d="M 5,5 L 5,27 L 26,16 Z"/>
  </g>
  <!-- Pause icon -->
  <g transform="translate(160, 192)"
     fill="#0f0" stroke="#f00" stroke-width="3">
    <rect x="5" y="5" width="8" height="22"/>
    <rect x="19" y="5" width="8" height="22"/>
  </g>
  <!-- Reset icon -->
  <g transform="translate(192, 192)"
     fill="#0f0" stroke="#f00" stroke-width="2">
    <rect x="7" y="7" width="18" height="18"/>
  </g>
  <!-- Fast-forward icon -->
  <g transform="translate(224, 192)"
     fill="#0f0" stroke="#f00" stroke-width="2">
    <path d="M 2,8 l 0,16 l 9,-8 Z"/>
    <path d="M 11,8 l 0,16 l 9,-8 Z"/>
    <path d="M 20,8 l 0,16 l 9,-8 Z"/>
  </g>
  <!-- Step subcycle icon -->
  <g transform="translate(128, 224)"
     fill="none" stroke="#f00" stroke-width="2">
    <path d="M 10,8 L 10,24 L 22,16 Z"/>
    <path d="M 23,8 V 24"/>
  </g>
  <!-- Step cycle icon -->
  <g transform="translate(160, 224)"
     fill="#0f0" stroke="#f00" stroke-width="2">
    <path d="M 10,8 L 10,24 L 22,16 Z"/>
    <path d="M 23,8 V 24"/>
  </g>
  <!-- Step time icon -->
  <g transform="translate(192, 224)"
     fill="#0f0" stroke="#f00" stroke-width="2">
    <path d="M 4,8 L 4,24 L 16,16 Z"/>
    <path d="M 16,8 L 16,24 L 28,16 Z"/>
    <path d="M 29,8 V 24"/>
  </g>
</svg>
