<?xml version="1.0" encoding="UTF-8"?>
<svg xmlns="http://www.w3.org/2000/svg" version="1.1" width="64" height="64">
  <g transform="translate(32, 32) scale(1.25)">
    <g fill="none" stroke="black" stroke-width="3">
      <path d="M 17.32,10 L 0,20 L -17.32,10 V -10 L 0,-20 L 17.32,-10 Z"/>
      <path d="M 0,0 L 0,20"/>
      <path d="M 0,0 L 17.32,-10"/>
      <path d="M 0,0 L -17.32,-10"/>
    </g>
    <g transform="rotate(-90) scale(1.41, 2.45) rotate(-45)"
       fill="black" stroke="none">
      <circle cx="2.75" cy="2.75" r="0.9"/>
      <circle cx="7.25" cy="2.75" r="0.9"/>
      <circle cx="5.00" cy="5.00" r="0.9"/>
      <circle cx="2.75" cy="7.25" r="0.9"/>
      <circle cx="7.25" cy="7.25" r="0.9"/>
    </g>
    <g transform="rotate(30) scale(1.41, 2.45) rotate(-45)"
       fill="black" stroke="none">
      <circle cx="2.75" cy="2.75" r="0.9"/>
      <circle cx="7.25" cy="2.75" r="0.9"/>
      <circle cx="2.75" cy="5.00" r="0.9"/>
      <circle cx="7.25" cy="5.00" r="0.9"/>
      <circle cx="2.75" cy="7.25" r="0.9"/>
      <circle cx="7.25" cy="7.25" r="0.9"/>
    </g>
    <g transform="rotate(150) scale(1.41, 2.45) rotate(-45)"
       fill="black" stroke="none">
      <circle cx="2.75" cy="2.75" r="0.9"/>
      <circle cx="7.25" cy="2.75" r="0.9"/>
      <circle cx="2.75" cy="7.25" r="0.9"/>
      <circle cx="7.25" cy="7.25" r="0.9"/>
    </g>
  </g>
</svg>
