<?xml version="1.0" encoding="UTF-8"?>
<svg xmlns="http://www.w3.org/2000/svg" version="1.1" width="32" height="32">
  <circle cx="16" cy="16" r="14" fill="none" stroke="black" stroke-width="3"/>
  <g transform="translate(22,16) rotate(110)">
    <circle cx="0" cy="0" r="1.5" fill="black" stroke="none"/>
    <circle cx="0" cy="0" r="3.5"
            fill="none" stroke="black" stroke-width="1.5"/>
    <path d="M 0,-4.25 L 7.5,-4 A 12,12 0 0 1 13,4 L 0,4.25
             A 4.5 4.5 0 0 0 0,-4.25"
          fill="black" stroke="none"/>
  </g>
  <g transform="translate(22,16) rotate(25)">
    <path d="M -5,-3 L -9,-3 A 3.5 3.5 0 0 0 -15,-2 L -12,-2 L -12,2 L -15,2
             A 3.5 3.5 0 0 0 -9,3 L -5.5,3 L -5.7,0 A 4.5 4.5 0 0 1 -5,-3"
          fill="black" stroke="none"/>
  </g>
</svg>
